# xmcd
#
# Track frame offsets:
#	150
#	22360
#	43840
#	70905
#	94703
#	117205
#	139813
#	158715
#	188878
#	205220
#	225268
#	239030
#	269580
#	283343
#	297378
#	320733
#	335385
#
# Disc length: 4681 seconds
#
# Revision: 1
# Processed by: cddbd v1.5.1PL2 Copyright (c) Steve Scherf et al.
# Submitted via: audiograbber 1.83.01
#
DISCID=11124711
DTITLE=Taj Mahal - Music Fuh Ya' (Musica Para Tu) and Evolution (The Most Recent)
DYEAR=1977
DGENRE=
TTITLE0=You Got It
TTITLE1=Freight Train
TTITLE2=Baby, You're My Destiny
TTITLE3=Sailin' Into Walker's Cay
TTITLE4=Truck Drivers Two-Step
TTITLE5=The Four Mills Brothers
TTITLE6=Honey Babe
TTITLE7=Curry
TTITLE8=Sing A Happy Song
TTITLE9=Queen Bee
TTITLE10=Lowdown Showdown
TTITLE11=The Most Recent (Evolution) Of Muthafusticus Modernusticus
TTITLE12=Why You Do Me This Way
TTITLE13=Salsa De Laventille
TTITLE14=The Big Blues
TTITLE15=Highnite
TTITLE16=Southbound With The Hammer Down
EXTD=
EXTT0=
EXTT1=
EXTT2=
EXTT3=
EXTT4=
EXTT5=
EXTT6=
EXTT7=
EXTT8=
EXTT9=
EXTT10=
EXTT11=
EXTT12=
EXTT13=
EXTT14=
EXTT15=
EXTT16=
PLAYORDER=
